<svg width="300" height="50" viewBox="0 0 300 50" fill="none" xmlns="http://www.w3.org/2000/svg">
<rect width="300" height="50" rx="8" fill="white"/>
<path d="M91.9609 26.5664C91.9609 24.5977 92.4219 23.0273 93.3438 21.8555C94.2734 20.6758 95.5039 20.0859 97.0352 20.0859C98.4805 20.0859 99.6172 20.5898 100.445 21.5977L100.574 20.3203H103.141V32.6133C103.141 34.2773 102.621 35.5898 101.582 36.5508C100.551 37.5117 99.1562 37.9922 97.3984 37.9922C96.4688 37.9922 95.5586 37.7969 94.668 37.4062C93.7852 37.0234 93.1133 36.5195 92.6523 35.8945L94 34.1836C94.875 35.2227 95.9531 35.7422 97.2344 35.7422C98.1797 35.7422 98.9258 35.4844 99.4727 34.9688C100.019 34.4609 100.293 33.7109 100.293 32.7188V31.8633C99.4727 32.7773 98.3789 33.2344 97.0117 33.2344C95.5273 33.2344 94.3125 32.6445 93.3672 31.4648C92.4297 30.2852 91.9609 28.6523 91.9609 26.5664ZM94.7969 26.8125C94.7969 28.0859 95.0547 29.0898 95.5703 29.8242C96.0938 30.5508 96.8164 30.9141 97.7383 30.9141C98.8867 30.9141 99.7383 30.4219 100.293 29.4375V23.8594C99.7539 22.8984 98.9102 22.418 97.7617 22.418C96.8242 22.418 96.0938 22.7891 95.5703 23.5312C95.0547 24.2734 94.7969 25.3672 94.7969 26.8125ZM109.105 33H106.258V20.3203H109.105V33ZM106.082 17.0273C106.082 16.5898 106.219 16.2266 106.492 15.9375C106.773 15.6484 107.172 15.5039 107.688 15.5039C108.203 15.5039 108.602 15.6484 108.883 15.9375C109.164 16.2266 109.305 16.5898 109.305 17.0273C109.305 17.457 109.164 17.8164 108.883 18.1055C108.602 18.3867 108.203 18.5273 107.688 18.5273C107.172 18.5273 106.773 18.3867 106.492 18.1055C106.219 17.8164 106.082 17.457 106.082 17.0273ZM115.785 17.2383V20.3203H118.023V22.4297H115.785V29.5078C115.785 29.9922 115.879 30.3438 116.066 30.5625C116.262 30.7734 116.606 30.8789 117.098 30.8789C117.426 30.8789 117.758 30.8398 118.094 30.7617V32.9648C117.445 33.1445 116.82 33.2344 116.219 33.2344C114.031 33.2344 112.938 32.0273 112.938 29.6133V22.4297H110.852V20.3203H112.938V17.2383H115.785ZM123.016 21.7031C123.945 20.625 125.121 20.0859 126.543 20.0859C129.246 20.0859 130.617 21.6289 130.656 24.7148V33H127.809V24.8203C127.809 23.9453 127.617 23.3281 127.234 22.9688C126.859 22.6016 126.305 22.418 125.57 22.418C124.43 22.418 123.578 22.9258 123.016 23.9414V33H120.168V15H123.016V21.7031ZM141.227 31.7578C140.391 32.7422 139.203 33.2344 137.664 33.2344C136.289 33.2344 135.246 32.832 134.535 32.0273C133.832 31.2227 133.48 30.0586 133.48 28.5352V20.3203H136.328V28.5C136.328 30.1094 136.996 30.9141 138.332 30.9141C139.715 30.9141 140.648 30.418 141.133 29.4258V20.3203H143.98V33H141.297L141.227 31.7578ZM158.008 26.7891C158.008 28.7578 157.566 30.3242 156.684 31.4883C155.809 32.6523 154.602 33.2344 153.062 33.2344C151.578 33.2344 150.422 32.6992 149.594 31.6289L149.453 33H146.875V15H149.723V21.5391C150.543 20.5703 151.648 20.0859 153.039 20.0859C154.586 20.0859 155.801 20.6602 156.684 21.8086C157.566 22.957 158.008 24.5625 158.008 26.625V26.7891ZM155.16 26.543C155.16 25.168 154.918 24.1367 154.434 23.4492C153.949 22.7617 153.246 22.418 152.324 22.418C151.09 22.418 150.223 22.957 149.723 24.0352V29.2617C150.23 30.3633 151.105 30.9141 152.348 30.9141C153.238 30.9141 153.926 30.582 154.41 29.918C154.895 29.2539 155.145 28.25 155.16 26.9062V26.543Z" fill="#737380"/>
<path d="M169.727 35.2383H158.98V33H169.727V35.2383ZM176.816 33.2344C175.012 33.2344 173.547 32.668 172.422 31.5352C171.305 30.3945 170.746 28.8789 170.746 26.9883V26.6367C170.746 25.3711 170.988 24.2422 171.473 23.25C171.965 22.25 172.652 21.4727 173.535 20.918C174.418 20.3633 175.402 20.0859 176.488 20.0859C178.215 20.0859 179.547 20.6367 180.484 21.7383C181.43 22.8398 181.902 24.3984 181.902 26.4141V27.5625H173.617C173.703 28.6094 174.051 29.4375 174.66 30.0469C175.277 30.6562 176.051 30.9609 176.98 30.9609C178.285 30.9609 179.348 30.4336 180.168 29.3789L181.703 30.8438C181.195 31.6016 180.516 32.1914 179.664 32.6133C178.82 33.0273 177.871 33.2344 176.816 33.2344ZM176.477 22.3711C175.695 22.3711 175.062 22.6445 174.578 23.1914C174.102 23.7383 173.797 24.5 173.664 25.4766H179.09V25.2656C179.027 24.3125 178.773 23.5938 178.328 23.1094C177.883 22.6172 177.266 22.3711 176.477 22.3711ZM188.676 24.4922L191.09 20.3203H194.254L190.375 26.5664L194.383 33H191.242L188.711 28.6641L186.191 33H183.027L187.035 26.5664L183.168 20.3203H186.309L188.676 24.4922ZM207.297 26.7891C207.297 28.75 206.852 30.3164 205.961 31.4883C205.07 32.6523 203.875 33.2344 202.375 33.2344C200.984 33.2344 199.871 32.7773 199.035 31.8633V37.875H196.188V20.3203H198.812L198.93 21.6094C199.766 20.5938 200.902 20.0859 202.34 20.0859C203.887 20.0859 205.098 20.6641 205.973 21.8203C206.855 22.9688 207.297 24.5664 207.297 26.6133V26.7891ZM204.461 26.543C204.461 25.2773 204.207 24.2734 203.699 23.5312C203.199 22.7891 202.48 22.418 201.543 22.418C200.379 22.418 199.543 22.8984 199.035 23.8594V29.4844C199.551 30.4688 200.395 30.9609 201.566 30.9609C202.473 30.9609 203.18 30.5977 203.688 29.8711C204.203 29.1367 204.461 28.0273 204.461 26.543ZM212.746 33H209.898V15H212.746V33ZM215.324 26.543C215.324 25.3008 215.57 24.1836 216.062 23.1914C216.555 22.1914 217.246 21.4258 218.137 20.8945C219.027 20.3555 220.051 20.0859 221.207 20.0859C222.918 20.0859 224.305 20.6367 225.367 21.7383C226.438 22.8398 227.016 24.3008 227.102 26.1211L227.113 26.7891C227.113 28.0391 226.871 29.1562 226.387 30.1406C225.91 31.125 225.223 31.8867 224.324 32.4258C223.434 32.9648 222.402 33.2344 221.23 33.2344C219.441 33.2344 218.008 32.6406 216.93 31.4531C215.859 30.2578 215.324 28.668 215.324 26.6836V26.543ZM218.172 26.7891C218.172 28.0938 218.441 29.1172 218.98 29.8594C219.52 30.5938 220.27 30.9609 221.23 30.9609C222.191 30.9609 222.938 30.5859 223.469 29.8359C224.008 29.0859 224.277 27.9883 224.277 26.543C224.277 25.2617 224 24.2461 223.445 23.4961C222.898 22.7461 222.152 22.3711 221.207 22.3711C220.277 22.3711 219.539 22.7422 218.992 23.4844C218.445 24.2188 218.172 25.3203 218.172 26.7891ZM236.16 22.9219C235.785 22.8594 235.398 22.8281 235 22.8281C233.695 22.8281 232.816 23.3281 232.363 24.3281V33H229.516V20.3203H232.234L232.305 21.7383C232.992 20.6367 233.945 20.0859 235.164 20.0859C235.57 20.0859 235.906 20.1406 236.172 20.25L236.16 22.9219ZM243.309 33.2344C241.504 33.2344 240.039 32.668 238.914 31.5352C237.797 30.3945 237.238 28.8789 237.238 26.9883V26.6367C237.238 25.3711 237.48 24.2422 237.965 23.25C238.457 22.25 239.145 21.4727 240.027 20.918C240.91 20.3633 241.895 20.0859 242.98 20.0859C244.707 20.0859 246.039 20.6367 246.977 21.7383C247.922 22.8398 248.395 24.3984 248.395 26.4141V27.5625H240.109C240.195 28.6094 240.543 29.4375 241.152 30.0469C241.77 30.6562 242.543 30.9609 243.473 30.9609C244.777 30.9609 245.84 30.4336 246.66 29.3789L248.195 30.8438C247.688 31.6016 247.008 32.1914 246.156 32.6133C245.312 33.0273 244.363 33.2344 243.309 33.2344ZM242.969 22.3711C242.188 22.3711 241.555 22.6445 241.07 23.1914C240.594 23.7383 240.289 24.5 240.156 25.4766H245.582V25.2656C245.52 24.3125 245.266 23.5938 244.82 23.1094C244.375 22.6172 243.758 22.3711 242.969 22.3711ZM257.254 22.9219C256.879 22.8594 256.492 22.8281 256.094 22.8281C254.789 22.8281 253.91 23.3281 253.457 24.3281V33H250.609V20.3203H253.328L253.398 21.7383C254.086 20.6367 255.039 20.0859 256.258 20.0859C256.664 20.0859 257 20.1406 257.266 20.25L257.254 22.9219Z" fill="#A8A8B3"/>
<path fill-rule="evenodd" clip-rule="evenodd" d="M43 25C43 16.16 50.16 9 59 9C67.84 9 75 16.16 74.9999 25C74.9999 33.832 67.8399 40.9999 59 40.9999C50.16 40.9999 43 33.832 43 25ZM49.4 34.6L62.504 28.504L68.6 15.4L55.496 21.496L49.4 34.6ZM60.76 25C60.76 25.968 59.9759 26.76 59 26.76C58.032 26.76 57.2399 25.968 57.2399 25C57.2399 24.0319 58.0319 23.2399 59 23.2399C59.976 23.2399 60.76 24.0319 60.76 25Z" fill="#121214"/>
</svg>
